<svg width="96" height="96" viewBox="0 0 96 96" fill="none" xmlns="http://www.w3.org/2000/svg">
  <rect width="96" height="96" rx="26" fill="#050508"/>
  <circle cx="48" cy="48" r="31" fill="url(#glow)" stroke="url(#ring)" stroke-width="1.5"/>
  <path d="M24 50C30 41 36 41 42 50C48 59 54 59 60 50C66 41 72 41 78 50" stroke="url(#wave)" stroke-width="4" stroke-linecap="round"/>
  <path d="M28 61C34 55 40 55 46 61C52 67 58 67 64 61C68 57 72 56 76 58" stroke="#93C5FD" stroke-opacity="0.42" stroke-width="2.4" stroke-linecap="round"/>
  <circle cx="48" cy="48" r="39" stroke="#FFFFFF" stroke-opacity="0.07"/>
  <defs>
    <radialGradient id="glow" cx="0" cy="0" r="1" gradientUnits="userSpaceOnUse" gradientTransform="translate(34 26) rotate(57) scale(56)">
      <stop stop-color="#8B5CF6" stop-opacity="0.88"/>
      <stop offset="0.56" stop-color="#2563EB" stop-opacity="0.52"/>
      <stop offset="1" stop-color="#020617" stop-opacity="0.92"/>
    </radialGradient>
    <linearGradient id="ring" x1="20" y1="18" x2="78" y2="82" gradientUnits="userSpaceOnUse">
      <stop stop-color="#E9D5FF" stop-opacity="0.62"/>
      <stop offset="1" stop-color="#38BDF8" stop-opacity="0.34"/>
    </linearGradient>
    <linearGradient id="wave" x1="22" y1="45" x2="78" y2="55" gradientUnits="userSpaceOnUse">
      <stop stop-color="#FFFFFF"/>
      <stop offset="0.5" stop-color="#C4B5FD"/>
      <stop offset="1" stop-color="#7DD3FC"/>
    </linearGradient>
  </defs>
</svg>
